# Blender v2.66 (sub 1) OBJ File: ''
# www.blender.org
mtllib puck.mtl
o Cylinder_Cylinder.001
v 0.047448 0.588845 -0.201659
v 0.047448 0.663130 -0.201659
v 0.108600 0.663130 -0.195636
v 0.108600 0.588845 -0.195636
v 0.167402 0.663130 -0.177799
v 0.167402 0.588845 -0.177799
v 0.221594 0.663130 -0.148832
v 0.221594 0.588845 -0.148832
v 0.269094 0.663130 -0.109850
v 0.269094 0.588845 -0.109850
v 0.308076 0.663130 -0.062350
v 0.308076 0.588845 -0.062350
v 0.337043 0.663130 -0.008158
v 0.337043 0.588845 -0.008158
v 0.354880 0.663130 0.050644
v 0.354880 0.588845 0.050644
v 0.360903 0.663130 0.111796
v 0.360903 0.588845 0.111796
v 0.354880 0.663130 0.172948
v 0.354880 0.588845 0.172948
v 0.337043 0.663130 0.231750
v 0.337043 0.588845 0.231750
v 0.308076 0.663130 0.285943
v 0.308076 0.588845 0.285943
v 0.269094 0.663130 0.333442
v 0.269094 0.588845 0.333442
v 0.221594 0.663130 0.372424
v 0.221594 0.588845 0.372424
v 0.167402 0.663130 0.401391
v 0.167402 0.588845 0.401391
v 0.108600 0.663130 0.419228
v 0.108600 0.588845 0.419228
v 0.047448 0.663130 0.425251
v 0.047448 0.588845 0.425251
v -0.013704 0.663130 0.419228
v -0.013704 0.588845 0.419228
v -0.072506 0.663130 0.401391
v -0.072506 0.588845 0.401391
v -0.126698 0.663130 0.372424
v -0.126698 0.588845 0.372424
v -0.174198 0.663130 0.333442
v -0.174198 0.588845 0.333442
v -0.213181 0.663130 0.285942
v -0.213181 0.588845 0.285942
v -0.242147 0.663130 0.231750
v -0.242147 0.588845 0.231750
v -0.259984 0.663130 0.172948
v -0.259984 0.588845 0.172948
v -0.266007 0.663130 0.111796
v -0.266007 0.588845 0.111796
v -0.259984 0.663130 0.050644
v -0.259984 0.588845 0.050644
v -0.242147 0.663130 -0.008158
v -0.242147 0.588845 -0.008158
v -0.213180 0.663130 -0.062351
v -0.213180 0.588845 -0.062351
v -0.174198 0.663130 -0.109851
v -0.174198 0.588845 -0.109851
v -0.126698 0.663130 -0.148833
v -0.126698 0.588845 -0.148833
v -0.072506 0.663130 -0.177799
v -0.072506 0.588845 -0.177799
v -0.013704 0.663130 -0.195636
v -0.013704 0.588845 -0.195636
vn 0.098016 0.000000 -0.995185
vn 0.290286 0.000000 -0.956940
vn 0.471400 0.000000 -0.881920
vn 0.634391 0.000000 -0.773013
vn 0.773013 0.000000 -0.634391
vn 0.881920 0.000000 -0.471400
vn 0.956940 0.000000 -0.290286
vn 0.995185 0.000000 -0.098017
vn 0.995185 -0.000000 0.098017
vn 0.956940 -0.000000 0.290286
vn 0.881922 -0.000000 0.471396
vn 0.773009 -0.000000 0.634395
vn 0.634391 -0.000000 0.773013
vn 0.471399 -0.000000 0.881920
vn 0.290284 -0.000000 0.956940
vn 0.098017 -0.000000 0.995185
vn -0.098017 -0.000000 0.995185
vn -0.290284 -0.000000 0.956940
vn -0.471399 -0.000000 0.881920
vn -0.634395 -0.000000 0.773009
vn -0.773008 -0.000000 0.634396
vn -0.881924 -0.000000 0.471392
vn -0.956941 -0.000000 0.290284
vn -0.995185 -0.000000 0.098017
vn -0.995185 0.000000 -0.098017
vn -0.956941 0.000000 -0.290283
vn -0.881920 0.000000 -0.471400
vn -0.773013 0.000000 -0.634391
vn -0.634391 0.000000 -0.773013
vn -0.471392 0.000000 -0.881924
vn -0.098018 0.000000 -0.995185
vn -0.290284 0.000000 -0.956941
vn -0.000000 1.000000 0.000000
vn 0.000000 -1.000000 -0.000000
usemtl Material.005
s off
f 1//1 2//1 3//1 4//1
f 4//2 3//2 5//2 6//2
f 6//3 5//3 7//3 8//3
f 8//4 7//4 9//4 10//4
f 10//5 9//5 11//5 12//5
f 12//6 11//6 13//6 14//6
f 14//7 13//7 15//7 16//7
f 16//8 15//8 17//8 18//8
f 18//9 17//9 19//9 20//9
f 20//10 19//10 21//10 22//10
f 22//11 21//11 23//11 24//11
f 24//12 23//12 25//12 26//12
f 26//13 25//13 27//13 28//13
f 28//14 27//14 29//14 30//14
f 30//15 29//15 31//15 32//15
f 32//16 31//16 33//16 34//16
f 34//17 33//17 35//17 36//17
f 36//18 35//18 37//18 38//18
f 38//19 37//19 39//19 40//19
f 40//20 39//20 41//20 42//20
f 42//21 41//21 43//21 44//21
f 44//22 43//22 45//22 46//22
f 46//23 45//23 47//23 48//23
f 48//24 47//24 49//24 50//24
f 50//25 49//25 51//25 52//25
f 52//26 51//26 53//26 54//26
f 54//27 53//27 55//27 56//27
f 56//28 55//28 57//28 58//28
f 58//29 57//29 59//29 60//29
f 60//30 59//30 61//30 62//30
f 2//31 1//31 64//31 63//31
f 62//32 61//32 63//32 64//32
f 53//33 51//33 49//33 47//33 45//33 43//33 41//33 39//33 37//33 35//33 33//33 31//33 29//33 27//33 25//33 23//33 21//33 19//33 17//33 15//33 13//33 11//33 9//33 7//33 5//33 3//33 2//33 63//33 61//33 59//33 57//33 55//33
f 56//34 58//34 60//34 62//34 64//34 1//34 4//34 6//34 8//34 10//34 12//34 14//34 16//34 18//34 20//34 22//34 24//34 26//34 28//34 30//34 32//34 34//34 36//34 38//34 40//34 42//34 44//34 46//34 48//34 50//34 52//34 54//34
